# xmcd
#
# Track frame offsets: 
#        150
#        26048
#        48101
#        64702
#        83625
#        102469
#        124931
#        149795
#        163957
#        182100
#        198514
#        227670
#
# Disc length: 3275 seconds
#
# Revision: 2
# Processed by: cddbd v1.5.2PL0 Copyright (c) Steve Scherf et al.
# Submitted via: ExactAudioCopy v1.0b1
#
DISCID=ad0cc90c
DTITLE=Kyle Hunt - My Way
DYEAR=2003
DGENRE=Country
TTITLE0=Cool Wind
TTITLE1=Memory Road
TTITLE2=My Way
TTITLE3=Bar Stool
TTITLE4=Carpe Diem
TTITLE5=Beer Store
TTITLE6=Legend
TTITLE7=Poke Salad Annie
TTITLE8=Home Sweet Home
TTITLE9=Guitar Man
TTITLE10=The Shadow
TTITLE11=Deer Hunting Song
EXTD=
EXTT0=
EXTT1=
EXTT2=
EXTT3=
EXTT4=
EXTT5=
EXTT6=
EXTT7=
EXTT8=
EXTT9=
EXTT10=
EXTT11=
PLAYORDER=
